<?xml version="1.0" encoding="UTF-8"?>
<svg width="16px" height="16px" viewBox="0 0 16 16" version="1.1" xmlns="http://www.w3.org/2000/svg" xmlns:xlink="http://www.w3.org/1999/xlink">
    <title>Icon-Architecture/16/Arch_Amazon-CodeCatalyst_16</title>
    <defs>
        <linearGradient x1="0%" y1="100%" x2="100%" y2="0%" id="linearGradient-1">
            <stop stop-color="#2E27AD" offset="0%"></stop>
            <stop stop-color="#527FFF" offset="100%"></stop>
        </linearGradient>
    </defs>
    <g id="Icon-Architecture/16/Arch_Amazon-CodeCatalyst_16" stroke="none" stroke-width="1" fill="none" fill-rule="evenodd">
        <g id="Icon-Architecture-BG/16/Developer-Tools" fill="url(#linearGradient-1)">
            <rect id="Rectangle" x="0" y="0" width="16" height="16"></rect>
        </g>
        <g id="Icon-Service/16/Amazon-CodeCatalyst_16" transform="translate(2.666667, 2.666667)" fill="#FFFFFF">
            <path d="M8.25866667,6.46 C8.40866667,6.08933333 8.484,5.69666667 8.484,5.29333333 C8.484,4.846 8.39133333,4.414 8.20866667,4.01 L8.81666667,3.73533333 C9.038,4.226 9.15066667,4.75066667 9.15066667,5.29333333 C9.15066667,5.78266667 9.05866667,6.25866667 8.87733333,6.70933333 L8.25866667,6.46 Z M10.644,5.31933333 C10.644,6.09866667 10.4666667,6.84533333 10.116,7.53733333 L9.52133333,7.23666667 C9.824,6.63866667 9.97733333,5.99333333 9.97733333,5.31933333 C9.97733333,4.57933333 9.784,3.85 9.41733333,3.21 L9.99533333,2.87866667 C10.42,3.61933333 10.644,4.46333333 10.644,5.31933333 L10.644,5.31933333 Z M0.716,5.96 L1.63266667,5.96 C1.90666667,7.49333333 3.10133333,8.71 4.62466667,9.01066667 L4.62466667,9.91933333 C2.59666667,9.612 0.997333333,7.996 0.716,5.96 L0.716,5.96 Z M4.62466667,0.724666667 L4.62466667,1.57666667 C2.886,1.92 1.57066667,3.45533333 1.57066667,5.29333333 L0.668,5.29333333 C0.682,2.97733333 2.39733333,1.062 4.62466667,0.724666667 L4.62466667,0.724666667 Z M5.32266667,9.97733333 C5.312,9.97733333 5.302,9.976 5.29133333,9.97533333 L5.29133333,9.08 C5.31466667,9.08066667 5.33666667,9.084 5.36,9.084 C6.56066667,9.084 7.70333333,8.50533333 8.41533333,7.53733333 L7.87933333,7.142 C7.29133333,7.94066667 6.35,8.41733333 5.36,8.41733333 C3.638,8.41733333 2.23733333,7.016 2.23733333,5.29333333 C2.23733333,3.57133333 3.638,2.17 5.36,2.17 C6.29733333,2.17 7.176,2.58533333 7.77266667,3.30866667 L8.28666667,2.88533333 C7.56333333,2.00733333 6.49666667,1.50333333 5.36,1.50333333 C5.33666667,1.50333333 5.31466667,1.50666667 5.29133333,1.50733333 L5.29133333,0.668 C5.302,0.668 5.312,0.666666667 5.32266667,0.666666667 C6.75066667,0.666666667 8.08,1.31 8.97066667,2.432 L9.49333333,2.01733333 C8.47533333,0.735333333 6.95533333,0 5.32266667,0 C2.38733333,0 0,2.38733333 0,5.32133333 C0,8.256 2.38733333,10.644 5.32266667,10.644 C7.038,10.644 8.658,9.808 9.65733333,8.408 L9.114,8.02066667 C8.24066667,9.246 6.82266667,9.97733333 5.32266667,9.97733333 L5.32266667,9.97733333 Z" id="Fill-7"></path>
        </g>
    </g>
</svg>